<svg width="68" height="24" viewBox="0 0 68 24" fill="none" xmlns="http://www.w3.org/2000/svg">
<path fill-rule="evenodd" clip-rule="evenodd" d="M29.5249 0.689127C28.6027 1.57643 28.6027 3.0973 29.5249 4.01567C30.4471 4.93451 31.9736 4.93451 32.8958 4.01567C33.8175 3.0973 33.8175 1.57643 32.8958 0.689127C31.9736 -0.229709 30.4471 -0.229709 29.5249 0.689127ZM48.0532 6.90622L45.8909 7.25455C41.7659 8.19105 39.0859 9.53288 39.0859 14.0441V23.096L42.8384 23.8562V14.6094C42.8384 12.5013 44.033 11.5491 45.8909 11.1971L48.0532 10.8023V6.90622ZM19.4924 23.1332L23.245 23.8933V13.66C23.245 8.74898 19.4291 6.97487 16.7896 6.97487C15.0089 6.97487 13.6101 7.41829 12.3378 8.65395C11.0343 7.41829 9.47621 6.94334 8.20394 6.94334C6.39164 6.94334 4.80141 7.73505 3.75212 9.0027V7.29167L0 8.02035V23.1332L3.75212 23.8933V13.5014C3.75212 11.8538 4.96062 10.6817 6.77338 10.6817C8.55403 10.6817 9.76248 11.8538 9.76248 13.5014V23.1332L13.5146 23.8933V13.5014C13.5146 11.8538 14.7227 10.6817 16.5037 10.6817C18.2844 10.6817 19.4924 11.8538 19.4924 13.5014V23.1332ZM68 15.4559C68 20.1679 64.1538 24 59.4562 24C54.727 24 50.8808 20.1679 50.8808 15.4559C50.8808 10.7755 54.727 6.94334 59.4562 6.94334C64.1538 6.94334 68 10.7755 68 15.4559ZM59.4562 20.4503C56.7133 20.4503 54.4747 18.2203 54.4747 15.4559C54.4747 12.7231 56.7133 10.5241 59.4562 10.5241C62.1991 10.5241 64.4057 12.7231 64.4057 15.4559C64.4057 18.2203 62.1991 20.4503 59.4562 20.4503ZM33.0545 24L29.3024 23.1332V7.91272L33.0545 7.15252V24Z" fill="black"/>
</svg>
